<svg xmlns="http://www.w3.org/2000/svg" version="1.1" xmlns:xlink="http://www.w3.org/1999/xlink" xmlns:svgjs="http://svgjs.com/svgjs" width="1980" height="1065" preserveAspectRatio="none" viewBox="0 0 1980 1065"><g mask="url(&quot;#SvgjsMask2319&quot;)" fill="none"><rect width="1980" height="1065" x="0" y="0" fill="url(#SvgjsLinearGradient2320)"></rect><path d="M26 1065L1091 0L1539.5 0L474.5 1065z" fill="url(#SvgjsLinearGradient2321)"></path><path d="M657.4 1065L1722.4 0L2157.4 0L1092.4 1065z" fill="url(#SvgjsLinearGradient2321)"></path><path d="M1897 1065L832 0L550 0L1615 1065z" fill="url(#SvgjsLinearGradient2322)"></path><path d="M1247.6 1065L182.5999999999999 0L-183.4000000000001 0L881.5999999999999 1065z" fill="url(#SvgjsLinearGradient2322)"></path><path d="M1073.699689677705 1065L1980 158.6996896777049L1980 1065z" fill="url(#SvgjsLinearGradient2321)"></path><path d="M0 1065L906.3003103222951 1065L 0 158.6996896777049z" fill="url(#SvgjsLinearGradient2322)"></path></g><defs><mask id="SvgjsMask2319"><rect width="1980" height="1065" fill="#ffffff"></rect></mask><linearGradient x1="11.55%" y1="-21.48%" x2="88.45%" y2="121.48%" gradientUnits="userSpaceOnUse" id="SvgjsLinearGradient2320"><stop stop-color="#0e2a47" offset="0"></stop><stop stop-color="rgba(51, 12, 66, 1)" offset="1"></stop></linearGradient><linearGradient x1="0%" y1="100%" x2="100%" y2="0%" id="SvgjsLinearGradient2321"><stop stop-color="rgba(15, 70, 185, 0.2)" offset="0"></stop><stop stop-opacity="0" stop-color="rgba(15, 70, 185, 0.2)" offset="0.66"></stop></linearGradient><linearGradient x1="100%" y1="100%" x2="0%" y2="0%" id="SvgjsLinearGradient2322"><stop stop-color="rgba(15, 70, 185, 0.2)" offset="0"></stop><stop stop-opacity="0" stop-color="rgba(15, 70, 185, 0.2)" offset="0.66"></stop></linearGradient></defs></svg>