<?xml version="1.0" encoding="UTF-8"?>
<svg width="752pt" height="752pt" version="1.1" viewBox="0 0 752 752" xmlns="http://www.w3.org/2000/svg">
 <path d="m429.14 466.06c3.0195-7.9453 8.5664-23.598 9.8984-34.531 1.8359-15.066 3.1406-34.879-3.1328-54.527-0.085938-0.26953-0.17578-0.53906-0.27344-0.80859l12.949-128.31 0.019531-0.19531v-0.19531c-0.011718-5.2734-2-10.23-5.5938-13.965-3.625-3.7656-8.4492-5.8398-13.586-5.8398h-0.046875c-10.496 0.023437-19.027 8.8164-19.133 19.645l-7.082 56.98-3.8906-66.559c-0.71094-10.922-9.875-19.246-20.43-18.562-5.1445 0.33594-9.832 2.7305-13.207 6.7461-3.3359 3.9688-4.9844 9.0508-4.6406 14.285l3.7891 65.406c-3.3359-2.8984-7.6289-4.6445-12.312-4.6445h-0.046875c-5.1523 0.011719-9.9844 2.1094-13.605 5.9023-1.3242 1.3867-2.4258 2.9453-3.2891 4.6172-2.4961-2.3789-5.793-3.6172-9.7188-3.6172h-0.042969c-5.1523 0.011719-9.9844 2.1094-13.605 5.9023-3.5781 3.75-5.5391 8.7188-5.5273 13.992l0.67969 17.516c-5.4297 23.066-6.7188 49.617-3.3555 69.422 3.1953 18.816 6.6484 25.426 19.453 37.223 6.9141 6.3672 9.0352 9.4688 9.6484 14.125h-11.766v62.969c0 2.0859 1.6914 3.7773 3.7773 3.7773 2.0859 0 3.7773-1.6914 3.7773-3.7773v-55.414h114.49v51.344l-65.535-0.003907c-2.0859 0-3.7773 1.6914-3.7773 3.7773s1.6914 3.7773 3.7773 3.7773h73.086v-66.453zm-11.375-218.02 0.03125-0.23828v-0.23828c-0.015625-6.7812 5.1875-12.309 11.598-12.324h0.027344c3.0664 0 5.957 1.25 8.1445 3.5234 2.1953 2.2812 3.4297 5.3164 3.4805 8.5625l-11.855 117.46c-4.0469-5.2852-9.625-10.762-16.703-16.379-2.3047-1.8281-4.6094-3.543-6.832-5.125l0.26953 0.035156zm-46.352-17.246c2.0352-2.4219 4.8477-3.8672 7.918-4.0664 6.3945-0.41797 11.961 4.75 12.398 11.488l5.8242 99.645c-3.5156-2.2148-6.3828-3.8438-8.0664-4.7148-3.6055-1.8672-9.6719-5.0078-15.848-5.1836l-5.1094-88.211c-0.21484-3.3047 0.80859-6.4844 2.8828-8.957zm-27.129 81.301c2.1836-2.2891 5.082-3.5547 8.1562-3.5625h0.027344c6.3984 0 11.613 5.4961 11.629 12.27l0.023438 9.9844c-0.33984 0.24609-0.67578 0.51172-1.0039 0.79688-4.0039 3.4688-6.4336 8.9609-6.5 14.688-0.058594 5.2734 1.8789 10.086 5.3164 13.199 0.58203 0.52734 1.3281 1.1562 2.1953 1.8594l-0.03125 12.34c-0.015625 6.7695-5.2305 12.27-11.629 12.27h-0.027344c-3.0742-0.007813-5.9727-1.2734-8.1562-3.5625-2.2266-2.3359-3.4492-5.4453-3.4414-8.7617l0.046875-20.426-0.046875-32.332c-0.007812-3.3164 1.2148-6.4258 3.4414-8.7617zm-30.098 15.598c0.007812-3.2891 1.2266-6.375 3.4414-8.6953 2.1836-2.2891 5.082-3.5547 8.1562-3.5625 2.0469 0 7.4766-0.019532 7.5039 12.27v38.301c-0.03125 12.297-5.457 12.273-7.5039 12.277-3.0742-0.007813-5.9727-1.2734-8.1562-3.5625-2.2148-2.3203-3.4336-5.4102-3.4414-8.7031l0.68359-19.848 0.03125-0.13672zm14.344 118.69c-10.906-10.047-14.012-14.598-17.121-32.934-1.7891-10.543-2.1875-23.125-1.2852-36.039 0.60547 0.88672 1.2891 1.7305 2.0391 2.5195 3.6211 3.7969 8.4531 5.8906 13.605 5.9023h0.042969c3.793 0 7-1.1641 9.4648-3.3906 0.89844 1.8711 2.082 3.6094 3.543 5.1367 3.6211 3.7969 8.4531 5.8906 13.605 5.9023h0.046875c10.555 0 19.156-8.875 19.184-19.805l0.015625-6.5977c6.4727 4.7734 14.07 10.102 17.832 12.723-2.4219 7.4844-8.8164 28.363-8.3984 39.062 0.082031 2.0859 1.8359 3.7109 3.9219 3.625 2.0859-0.082031 3.707-1.8359 3.625-3.9219-0.44922-11.5 8.8047-38.766 8.8984-39.039 0.54688-1.5977-0.039062-3.3672-1.4297-4.3281-0.23438-0.16016-23.488-16.234-29.113-21.332-1.8359-1.6641-2.8711-4.4062-2.8359-7.5156 0.039063-3.6016 1.4961-6.9883 3.8906-9.0625 4.2773-3.7031 11.156-0.95703 17.957 2.5625 7.6172 3.9453 37.191 22.207 42.695 39.445 5.793 18.152 4.6836 36.129 2.832 51.316-1.3906 11.418-8.1055 29.312-10.5 35.445l-80.402 0.003906c-0.74609-7.3516-3.7734-11.992-12.113-19.68z" fill="#676767"/>
</svg>
